<svg width="135" height="135" viewBox="0 0 135 135" fill="none" xmlns="http://www.w3.org/2000/svg">
<g clip-path="url(#clip0_195_4)" filter="url(#filter0_g_195_4)">
<path d="M52.0488 33.2466C51.1324 35.1134 50.1481 36.8444 49.0959 38.4396C48.485 39.1863 47.874 39.8991 47.2631 40.5779C46.6521 41.2568 46.0073 41.9356 45.3284 42.6144C44.3102 43.6326 43.2411 44.6678 42.121 45.72C41.0009 46.7722 39.8469 47.7565 38.659 48.6729C37.4711 49.5893 36.2322 50.3869 34.9424 51.0657C33.6866 51.7785 32.3969 52.2876 31.0732 52.5931C30.3265 53.0683 29.4949 53.4925 28.5785 53.8659C27.696 54.2732 26.7626 54.5956 25.7783 54.8332C24.828 55.0369 23.8437 55.1387 22.8255 55.1387C21.8412 55.1726 20.8908 55.0369 19.9744 54.7314C18.2434 53.0004 16.4276 51.2185 14.5269 49.3857C12.6601 47.5868 10.8103 45.7709 8.97749 43.9381L8.41746 43.3781C8.07805 42.9708 7.78955 42.6483 7.55196 42.4108C7.31437 42.1732 7.1277 41.9865 6.99193 41.8507C6.82223 41.8847 6.70343 41.8677 6.63555 41.7998C6.56767 41.7319 6.49979 41.6301 6.4319 41.4943C6.36402 41.3586 6.29614 41.2568 6.22826 41.1889C6.16037 41.121 6.09249 41.0871 6.02461 41.0871C5.95673 41.087 5.88885 41.0531 5.82096 40.9852C5.6852 40.8495 5.6852 40.6798 5.82096 40.4761C5.99067 40.2385 6.05855 40.0349 6.02461 39.8652C6.16037 39.9331 6.2622 39.9331 6.33008 39.8652C6.36402 39.8312 6.39796 39.6955 6.4319 39.4579C6.53373 39.2203 6.5507 39.0676 6.48281 38.9997C6.41493 38.9997 6.36402 38.9827 6.33008 38.9488C6.29614 38.9148 6.29614 38.8809 6.33008 38.8469C6.36402 38.813 6.48281 38.7281 6.68646 38.5924C6.95799 38.4566 7.21255 38.3039 7.45014 38.1342C7.75561 37.9645 8.01017 37.8117 8.21381 37.676C8.48534 37.5402 8.63808 37.4553 8.67202 37.4214C9.52055 36.5729 10.3012 35.6904 11.014 34.774C11.7607 33.8236 12.5413 32.9412 13.3559 32.1266C13.865 31.6175 14.459 31.1253 15.1378 30.6502C16.3597 29.2925 17.5476 27.9349 18.7016 26.5772C19.8896 25.2535 21.1454 23.8959 22.4691 22.5043C22.6049 22.5722 22.7067 22.5722 22.7746 22.5043C22.8085 22.4703 22.8255 22.4194 22.8255 22.3515C22.8255 22.2837 22.8594 22.2158 22.9273 22.1479C23.5382 21.6727 24.0304 21.2824 24.4037 20.9769C24.845 20.6715 25.1674 20.4169 25.3711 20.2133L26.6438 18.9405C28.4767 17.1076 30.2246 15.2579 31.8877 13.3911C33.5848 11.4904 35.3497 9.62363 37.1826 7.79081L38.4044 6.56893C38.6081 6.36528 38.8117 6.16163 39.0154 5.95798C39.219 5.75434 39.4396 5.56766 39.6772 5.39795C39.9148 5.16037 40.2373 5.10946 40.6446 5.24522C41.0858 5.34704 41.561 5.58463 42.0701 5.95798C42.5792 6.33134 43.1053 6.7556 43.6483 7.23078C44.2253 7.73989 44.7684 8.24901 45.2775 8.75813L47.1613 10.6419C47.9758 11.4564 48.7735 12.288 49.5541 13.1365C50.3687 13.9511 51.1833 14.7657 51.9979 15.5803L53.067 16.6494C54.1192 18.2447 54.6962 19.9757 54.798 21.8424C54.9338 23.7431 54.7471 25.6608 54.238 27.5955C53.7289 29.5301 52.9991 31.4138 52.0488 33.2466ZM37.7426 48.6729C38.3196 48.0959 38.9645 47.5189 39.6772 46.9419L39.5245 46.6873C41.2894 45.5333 42.9695 44.1587 44.5648 42.5635C46.2958 40.8325 47.7892 38.9657 49.045 36.9632C50.3348 34.9946 51.319 32.9242 51.9979 30.752L51.896 30.4465C52.3033 29.0889 52.5918 27.7142 52.7615 26.3227C52.9312 24.9311 52.7785 23.5225 52.3033 22.097C52.4052 20.9769 52.3203 19.9757 52.0488 19.0932C51.7772 18.2107 51.4209 17.4131 50.9796 16.7003C50.5384 15.9876 50.0293 15.3427 49.4523 14.7657C48.8753 14.1887 48.3153 13.6287 47.7722 13.0856C46.9576 12.271 46.2279 11.5752 45.583 10.9982C44.9721 10.3873 44.412 9.86121 43.9029 9.41998C43.3938 8.97874 42.8677 8.55448 42.3246 8.14719C41.8495 7.73989 41.3404 7.29866 40.7973 6.82348L39.1681 8.6563C38.4554 9.36907 37.7087 10.0479 36.928 10.6928C36.1813 11.3716 35.4346 12.0844 34.6879 12.8311L33.8224 13.6966C33.5509 13.9681 33.0927 14.3924 32.4478 14.9694C31.8368 15.5124 31.0053 16.2421 29.9531 17.1586L28.833 18.2786C27.5093 19.5344 26.1856 20.8242 24.8619 22.1479C23.5382 23.4716 22.2145 24.7614 20.8908 26.0172L14.5778 32.1266C14.5099 32.1266 14.442 32.1605 14.3741 32.2284L14.0687 32.5339C14.0008 32.6018 13.899 32.7036 13.7632 32.8394C13.6953 32.9751 13.6274 33.0769 13.5595 33.1448L13.4577 33.043L13.2032 33.2976L13.4068 33.2976L13.3559 33.5521C13.288 33.62 13.1183 33.6879 12.8468 33.7558C12.6431 33.8236 12.4565 33.9424 12.2867 34.1121C11.9134 34.4855 11.8116 34.791 11.9813 35.0286C11.54 35.7413 10.9461 36.4032 10.1994 37.0141C9.52055 37.6251 9.09628 38.3208 8.92658 39.1015C9.26599 38.5584 9.72419 37.9984 10.3012 37.4214C10.4709 37.2517 10.6576 37.065 10.8612 36.8614C11.0988 36.6917 11.3194 36.5389 11.5231 36.4032C11.3873 36.6068 11.2346 36.8274 11.0649 37.065C10.963 37.3026 10.9121 37.4893 10.9121 37.6251L11.6249 37.2178C10.9121 38.1342 10.2673 38.8809 9.69025 39.4579L8.87566 40.2725C8.80778 40.3403 8.70596 40.3743 8.57019 40.3743C8.46837 40.3403 8.38352 40.3573 8.31564 40.4252C8.24775 40.4931 8.23078 40.544 8.26472 40.5779C8.1629 40.544 8.09502 40.544 8.06108 40.5779C8.06108 40.5779 8.02714 40.544 7.95925 40.4761L7.90834 40.4252L7.80652 40.6288C7.8744 40.6967 7.94228 40.7646 8.01017 40.8325C8.14593 40.9004 8.24775 40.9683 8.31564 41.0361C8.58716 41.3077 8.79081 41.5792 8.92658 41.8507C9.13022 42.1223 9.36781 42.3938 9.63934 42.6653C9.91087 42.9368 10.3691 43.3611 11.014 43.9381C11.6588 44.5151 12.3207 45.1091 12.9995 45.72C13.7462 46.331 14.4081 46.891 14.9851 47.4001C15.6299 47.9092 16.0372 48.2486 16.2069 48.4183L15.8506 48.2656L16.8688 49.2838L17.1234 49.0293C17.1573 49.0632 17.2252 49.165 17.327 49.3347C17.4967 49.5044 17.7343 49.776 18.0398 50.1493C18.3113 50.1493 18.5149 50.2172 18.6507 50.353C18.8544 50.5566 18.8883 50.7942 18.7525 51.0657C18.8204 51.0657 19.0071 51.2185 19.3126 51.5239C19.6859 51.8973 20.0423 52.3555 20.3817 52.8986C20.7551 53.4077 21.0945 53.815 21.3999 54.1204C21.3999 54.0526 21.4339 53.9847 21.5018 53.9168C21.6036 53.815 21.7054 53.7471 21.8072 53.7131C21.943 53.7131 22.1127 53.6453 22.3164 53.5095L22.3164 53.815C22.4521 53.9507 22.6388 53.9338 22.8764 53.7641C23.1479 53.5604 23.4194 53.4586 23.691 53.4586C25.2862 53.3568 26.9154 53.0852 28.5785 52.644C30.2755 52.1688 31.8708 51.7955 33.3642 51.5239C33.3642 51.4561 33.449 51.3373 33.6187 51.1676C33.8903 50.896 34.2127 50.7094 34.5861 50.6075C34.9934 50.5397 35.3837 50.3869 35.757 50.1493C36.5037 49.742 37.1656 49.2499 37.7426 48.6729ZM40.1354 33.4503C39.7281 34.197 39.3548 34.9098 39.0154 35.5886C38.8457 35.8262 38.659 36.0468 38.4554 36.2504C38.2857 36.488 38.099 36.7086 37.8953 36.9123C37.1826 37.6251 36.351 38.2869 35.4007 38.8978C34.4503 39.5088 33.449 40.0009 32.3969 40.3743C31.4126 40.7476 30.4283 40.9513 29.444 40.9852C28.4597 41.0192 27.5433 40.8155 26.6948 40.3743C26.1856 39.9331 25.7274 39.5427 25.3201 39.2033C24.9468 38.83 24.5734 38.4566 24.2001 38.0833C23.8267 37.7099 23.5043 37.3196 23.2328 36.9123C22.9952 36.4711 23.114 36.0129 23.5891 35.5377C23.7928 35.334 24.0134 35.1474 24.251 34.9776C24.5225 34.8419 24.7941 34.6382 25.0656 34.3667L25.8293 33.603C26.6438 32.7884 27.5433 31.889 28.5276 30.9047C29.5798 29.9204 30.4962 29.038 31.2768 28.2573C31.8538 27.6803 32.312 27.1882 32.6514 26.7809C33.0248 26.4075 33.3642 26.0681 33.6697 25.7626C33.9751 25.4572 34.2467 25.1517 34.4842 24.8462C34.7897 24.5408 35.1291 24.2013 35.5025 23.828L36.1643 23.1661C36.5377 22.7928 36.8092 22.6231 36.9789 22.657C37.2165 22.691 37.522 22.8946 37.8953 23.268L38.8117 24.1844C39.1851 24.5577 39.5245 24.9311 39.83 25.3044C40.1694 25.6438 40.5088 25.9832 40.8482 26.3227C41.3234 27.1372 41.561 27.9518 41.561 28.7664C41.561 29.581 41.4082 30.3786 41.1028 31.1593C40.8652 31.9399 40.5427 32.7036 40.1354 33.4503ZM26.0329 39.2033C26.4741 39.5088 27.2718 39.967 28.4258 40.5779C29.6137 40.544 30.564 40.4422 31.2768 40.2725C32.0235 40.0688 32.6514 39.8143 33.1605 39.5088C33.7036 39.2373 34.1957 38.9148 34.637 38.5415C35.1122 38.2021 35.6552 37.8626 36.2662 37.5232C36.945 36.7765 37.5559 35.9959 38.099 35.1813C38.7099 34.3667 39.2021 33.5351 39.5754 32.6866C39.9827 31.8042 40.2203 30.9217 40.2882 30.0392C40.4239 29.1567 40.373 28.2912 40.1354 27.4427C40.3391 27.2391 40.39 27.0185 40.2882 26.7809C40.1864 26.5433 40.0336 26.3227 39.83 26.119C39.6603 25.9493 39.4736 25.7966 39.2699 25.6608C39.1002 25.4911 38.9814 25.3723 38.9136 25.3044C38.8117 25.2026 38.7439 25.0668 38.7099 24.8971C38.7099 24.6935 38.676 24.5577 38.6081 24.4898C38.5063 24.388 38.3875 24.3371 38.2517 24.3371C38.1499 24.3032 38.0311 24.2183 37.8953 24.0825C37.8274 24.0147 37.7426 23.9298 37.6408 23.828C37.6068 23.7262 37.5559 23.6413 37.488 23.5734C37.0468 23.1322 36.4698 23.268 35.757 23.9807L26.8984 32.8394C26.6608 33.0769 26.4232 33.3145 26.1856 33.5521C25.982 33.7558 25.7614 33.9424 25.5238 34.1121L23.5382 36.4032C23.6401 36.7086 23.8098 37.0141 24.0473 37.3196C24.3189 37.5911 24.6413 37.9136 25.0147 38.2869C25.3201 38.5924 25.6596 38.8978 26.0329 39.2033ZM38.5572 48.062L38.4044 48.2147L38.659 48.1638L38.5572 48.062ZM71.1621 55.3129C71.23 55.3808 71.3149 55.4317 71.4167 55.4656C69.3463 57.536 67.6323 59.2161 66.2746 60.5059C64.9849 61.7956 63.9496 62.7969 63.169 63.5097C62.4223 64.1885 61.8792 64.6297 61.5398 64.8334C61.2344 65.071 61.0477 65.1558 60.9798 65.0879L60.3689 64.3752C60.3689 64.2394 60.4028 64.1036 60.4707 63.9679C60.5725 63.7982 60.5046 63.4248 60.267 62.8478C60.0294 62.2708 59.6052 61.4732 58.9942 60.455C58.4172 59.4707 57.7724 58.6221 57.0596 57.9094C56.279 57.1287 55.4304 56.7214 54.514 56.6875C53.6315 56.6875 52.7151 56.8912 51.7648 57.2984C50.8484 57.7397 49.932 58.3506 49.0156 59.1313C48.1331 59.878 47.3185 60.6247 46.5718 61.3714C45.6893 62.2538 44.7899 63.1872 43.8735 64.1715C42.991 65.1898 42.1255 66.191 41.277 67.1753C40.4624 68.1257 39.6648 69.059 38.8841 69.9755C38.1374 70.8579 37.4586 71.6386 36.8477 72.3174C35.8973 71.6386 34.9809 70.9258 34.0984 70.1791C33.216 69.5003 32.4353 68.8554 31.7565 68.2445C31.0777 67.6335 30.5176 67.1074 30.0764 66.6662C29.6012 66.2589 29.3127 66.0043 29.2109 65.9025C28.7357 65.4273 28.4981 64.9182 28.4981 64.3752L29.9237 62.9496C32.3674 60.2344 34.4039 57.9942 36.0331 56.2293C37.6962 54.4304 38.969 53.0897 39.8514 52.2073C41.7861 50.2726 43.7207 48.4738 45.6554 46.8106C47.624 45.1815 49.3719 43.6032 50.8993 42.0758C51.8836 41.0916 52.7321 40.1412 53.4449 39.2248C53.7843 39.5642 54.0558 39.666 54.2595 39.5303C54.4631 39.3945 54.7855 39.2078 55.2268 38.9702C55.4983 39.3775 55.668 39.6151 55.7359 39.683C56.8899 40.837 57.9251 41.7364 58.8415 42.3813C59.7579 43.0262 60.6234 43.7559 61.438 44.5705L61.998 45.1305C62.0659 45.1305 62.0999 45.1306 62.0999 45.1306C62.1338 45.0966 62.1847 45.0796 62.2526 45.0796L62.5581 45.0796C62.3884 45.5888 62.032 46.0809 61.4889 46.5561C60.9798 47.0652 60.5895 47.6252 60.3179 48.2362C65.6467 51.6642 69.2105 53.8025 71.0094 54.651C71.0773 54.8547 71.0773 54.9904 71.0094 55.0583C70.9755 55.1602 70.9924 55.245 71.0603 55.3129C71.0943 55.2789 71.1282 55.2789 71.1621 55.3129ZM59.7579 59.4876C60.1652 60.7774 60.6913 61.9823 61.3362 63.1024C62.3205 62.186 63.3387 61.2696 64.3909 60.3531C65.5109 59.4367 66.5461 58.5034 67.4965 57.553C68.2432 56.8063 68.922 56.0257 69.533 55.2111C68.5487 54.2268 67.4626 53.5479 66.2746 53.1746C65.0867 52.8012 63.9496 52.2752 62.8635 51.5963C62.2865 51.223 61.7265 50.7648 61.1834 50.2217C60.6743 49.7126 60.0634 49.3053 59.3506 48.9998L59.2488 49.1017C59.2149 49.1356 59.1809 49.1695 59.147 49.2035C59.147 49.2714 59.13 49.3223 59.0961 49.3562C58.9264 49.5259 58.7227 49.5599 58.4851 49.458C58.3833 48.9489 58.4003 48.4907 58.536 48.0834C58.6718 47.6761 58.8245 47.3198 58.9942 47.0143C59.2318 46.7088 59.4355 46.4373 59.6052 46.1997C59.8088 45.996 59.9446 45.8263 60.0125 45.6906C59.13 44.8081 58.2306 44.0444 57.3142 43.3996C56.3977 42.7547 55.4644 41.991 54.514 41.1085C53.7673 41.5837 53.0715 42.1098 52.4266 42.6868C51.7818 43.2638 51.1708 43.8408 50.5938 44.4178C50.0168 44.9948 49.4568 45.5548 48.9137 46.0979C48.4046 46.6749 47.624 47.4895 46.5718 48.5416L45.8081 49.1017L46.0118 48.898C45.6384 49.0677 45.2651 49.3392 44.8917 49.7126C42.7534 52.0545 40.8018 54.2098 39.0369 56.1784C38.2902 56.993 37.5435 57.8076 36.7967 58.6221C36.084 59.4707 35.4052 60.2513 34.7603 60.9641C34.1493 61.6429 33.6063 62.2199 33.1311 62.6951C32.6899 63.2042 32.4014 63.5266 32.2656 63.6624L31.8074 64.1206L31.6038 64.8334L30.2801 65.4443C30.2122 65.3764 30.1952 65.2916 30.2291 65.1898C30.297 65.1219 30.314 65.071 30.2801 65.037L30.1782 65.1388C30.0425 65.2746 30.0764 65.4783 30.2801 65.7498C30.5176 66.0553 30.7383 66.3098 30.9419 66.5135C31.9262 67.4978 32.9105 68.3123 33.8948 68.9572C34.947 69.6021 35.9652 70.2809 36.9495 70.9937C38.1035 69.2288 39.4951 67.4299 41.1242 65.597C42.7874 63.7303 44.5353 61.8805 46.3681 60.0477C46.9791 59.4367 47.7428 58.707 48.6592 57.8585C49.6095 57.0439 50.5938 56.3651 51.612 55.822C52.6642 55.245 53.7164 54.9056 54.7686 54.8038C55.8547 54.7359 56.856 55.1602 57.7724 56.0766C58.7567 57.0609 59.4185 58.1979 59.7579 59.4876ZM72.4942 93.4032C73.9197 94.8287 75.3962 96.2033 76.9235 97.527L76.8726 97.9852L75.2434 99.8181C74.4628 100.599 73.6482 101.345 72.7997 102.058C71.9851 102.737 71.1705 103.484 70.3559 104.298L69.6941 104.349L55.9479 90.7049C55.914 90.603 55.7782 90.4333 55.5406 90.1957L55.0824 89.7375C54.6412 89.2963 54.166 88.889 53.6569 88.5157C53.1817 88.1763 52.6386 87.7011 52.0277 87.0901C50.7379 85.8004 49.9064 84.867 49.533 84.29C49.2276 83.713 49.1427 83.3566 49.2785 83.2208C49.3463 83.2208 49.3973 83.2039 49.4312 83.1699C49.533 83.0681 49.6348 83.0002 49.7367 82.9663C49.8724 82.7626 49.9912 82.576 50.0931 82.4063C50.2288 82.2705 50.3815 82.1178 50.5513 81.9481C50.8567 81.6426 51.1792 81.3541 51.5186 81.0826C51.858 80.811 52.1804 80.5225 52.4859 80.2171L52.8932 79.8098C53.0968 79.6061 53.2156 79.4534 53.2496 79.3516C53.8266 78.8424 54.3696 78.3333 54.8787 77.8242C55.4218 77.349 55.9479 76.8569 56.457 76.3478C58.4935 74.3113 60.3942 72.2748 62.1591 70.2384C63.958 68.168 65.8248 66.1654 67.7594 64.2308C69.2868 62.7034 70.899 61.1591 72.596 59.5978C74.327 58.0026 76.058 56.3395 77.789 54.6085C78.7733 53.6242 79.7746 52.6569 80.7928 51.7065C81.811 50.7562 82.8293 49.8737 83.8475 49.0591C84.153 49.1609 84.3396 49.2118 84.4075 49.2118C84.5094 49.2458 84.7639 49.4664 85.1712 49.8737C85.5785 50.281 86.2913 50.9937 87.3095 52.012C88.3617 52.9963 89.9739 54.5067 92.1461 56.5431C92.18 56.7807 92.3837 57.0862 92.757 57.4595L94.2844 58.9869C95.2347 59.9372 95.9815 60.7179 96.5245 61.3288C97.1355 61.9398 97.7803 62.5846 98.4592 63.2635C100.292 65.0963 102.108 66.8103 103.907 68.4055L104.161 68.4565C104.059 68.0152 103.822 67.6079 103.449 67.2346C103.279 67.0649 103.075 66.8952 102.838 66.7255C102.668 66.5558 102.498 66.386 102.328 66.2163L102.074 65.9618L102.176 65.86C102.753 66.437 103.33 66.98 103.907 67.4891C104.484 67.9983 105.095 68.5074 105.74 69.0165C105.841 69.1862 105.824 69.3389 105.689 69.4747C105.587 69.5765 105.332 69.6274 104.925 69.6274C104.687 70.0008 104.399 70.3572 104.059 70.6966C103.788 71.036 103.482 71.3754 103.143 71.7148C102.668 72.19 102.176 72.6482 101.667 73.0894C101.191 73.5646 100.716 74.0398 100.241 74.5149L99.6301 75.1259C99.3586 75.3974 99.1889 75.6011 99.121 75.7368C98.9174 75.8726 98.6967 76.0253 98.4592 76.195C98.2555 76.3987 98.0688 76.5854 97.8991 76.7551L97.6446 77.0096C97.1355 76.6363 96.3209 75.9574 95.2008 74.9732C94.1147 74.0228 92.6722 72.7161 90.8733 71.053C90.7036 70.8832 90.5169 70.6966 90.3133 70.4929C90.1436 70.2553 89.9739 70.0177 89.8042 69.7802L83.7966 64.0781L83.4911 64.1799C83.3214 64.3496 83.1517 64.5193 82.982 64.689C82.8802 64.8587 82.7444 65.0284 82.5747 65.1981C81.9977 65.7751 81.4037 66.3012 80.7928 66.7764C80.2158 67.2855 79.6388 67.8285 79.0618 68.4055C78.8242 68.6431 78.5866 68.8807 78.349 69.1183C78.1793 69.3559 77.9927 69.6105 77.789 69.882L77.789 70.2893L83.8984 76.5005C83.7966 76.806 83.2196 77.4848 82.1674 78.537C81.3868 79.3176 80.4704 80.2001 79.4182 81.1844C78.4339 82.1687 77.4835 83.119 76.5671 84.0354C76.1938 83.4584 75.6507 82.8136 74.938 82.1008L75.0398 82.2026C74.938 82.1008 74.6495 81.8123 74.1743 81.3371C73.733 80.8959 73.2239 80.4207 72.6469 79.9116C72.1378 79.4025 71.6626 78.9612 71.2214 78.5879C70.8141 78.1806 70.5935 77.9939 70.5596 78.0279C70.4917 78.0957 70.3559 78.1297 70.1523 78.1297L69.745 78.2315L66.2321 81.7444C65.2817 82.6948 64.6199 83.4924 64.2465 84.1373C64.1447 84.1712 64.0598 84.1882 63.9919 84.1882C63.958 84.1542 63.9071 84.1712 63.8392 84.2391L63.941 84.5446C65.4684 86.0719 66.9109 87.5823 68.2685 89.0757C69.6601 90.5352 71.0687 91.9777 72.4942 93.4032ZM59.919 92.945C61.8537 94.8117 64.7556 97.6119 68.6249 101.345C69.3037 101.888 69.8468 102.33 70.2541 102.669C70.899 102.296 71.6457 101.685 72.4942 100.836C73.0373 100.293 73.5464 99.7162 74.0215 99.1053C74.5307 98.5283 75.0228 98.0022 75.498 97.527C75.2943 97.527 75.1246 97.4591 74.9889 97.3234C74.921 97.2555 74.8531 97.1876 74.7852 97.1197C74.7513 97.0179 74.7004 96.9331 74.6325 96.8652C74.4628 96.6955 74.2591 96.6276 74.0215 96.6615C72.63 95.2021 71.2723 93.8105 69.9486 92.4868C68.6928 91.1631 67.3521 89.7885 65.9266 88.3629L62.7701 85.2064C62.4306 84.867 62.2779 84.4767 62.3119 84.0354L62.4137 84.0354L62.3628 83.4754C62.4306 83.3396 62.6682 83.0681 63.0755 82.6608L65.9775 79.7589C66.3508 79.3855 66.6224 79.0121 66.7921 78.6388C67.0297 78.2654 67.3351 77.8921 67.7085 77.5187C68.591 76.6363 69.0831 76.1781 69.1849 76.1441C69.3546 76.1102 69.4734 76.0593 69.5413 75.9914C69.6431 75.8896 69.9995 76.0762 70.6105 76.5514C71.2553 77.0605 71.9511 77.6545 72.6978 78.3333C73.5124 79.0121 74.2761 79.674 74.9889 80.3189C75.7356 80.9298 76.2447 81.3371 76.5162 81.5408C76.652 81.6765 76.669 81.7953 76.5671 81.8971L76.8726 82.2026C76.9065 82.1008 77.0253 81.9481 77.229 81.7444C77.9417 81.0995 78.5018 80.5734 78.9091 80.1661C79.3503 79.7928 79.6388 79.5382 79.7746 79.4025C79.9103 79.2667 80.097 79.0461 80.3346 78.7406C80.6061 78.4691 80.8607 78.1806 81.0983 77.8751C81.3698 77.5357 81.5565 77.2133 81.6583 76.9078C81.7941 76.6363 81.7941 76.4326 81.6583 76.2969C80.9795 75.8217 80.3516 75.2956 79.7746 74.7186C79.2654 74.2095 78.7903 73.6664 78.349 73.0894C77.9078 72.5124 77.4157 71.9524 76.8726 71.4093C76.4992 71.036 76.1938 70.9342 75.9562 71.1039C75.7186 70.8663 75.6337 70.6457 75.7016 70.442C75.7695 70.2384 75.8713 70.0347 76.0071 69.8311L76.5162 69.2201C76.7199 69.0165 76.8047 68.7959 76.7708 68.5583L78.5527 66.98C78.8242 66.7085 79.2654 66.2333 79.8764 65.5545C80.5213 64.9096 81.3189 64.0781 82.2692 63.0598C82.5747 62.7543 82.7953 62.5677 82.9311 62.4998L83.3893 62.3471L83.6948 62.6525C83.9324 62.8901 84.2039 63.1277 84.5094 63.3653C84.8488 63.6368 85.2221 63.9083 85.6294 64.1799L86.3422 64.8926C87.021 65.5715 88.158 66.6745 89.7533 68.2019C91.3824 69.6953 93.5038 71.6809 96.1172 74.1586C96.3887 74.3622 96.6263 74.5659 96.83 74.7695C97.1015 74.9732 97.407 75.1768 97.7464 75.3804L103.194 69.7292L103.245 69.4747C102.838 69.271 102.447 68.9825 102.074 68.6092C101.701 68.2358 101.327 67.8285 100.954 67.3873C100.648 66.9461 100.156 66.386 99.4774 65.7072C99.0022 65.232 98.6628 64.9266 98.4592 64.7908C98.3234 64.6551 98.0349 64.3666 97.5937 63.9253C97.0845 63.4162 96.4906 62.7883 95.8117 62.0416C95.1329 61.2949 94.4711 60.5991 93.8262 59.9542C92.197 58.325 90.483 56.7807 88.6841 55.3212C86.9192 53.8957 85.0694 52.4872 83.1347 51.0956L82.6256 51.2992L79.2654 54.863C79.1636 54.897 78.9939 55.0327 78.7563 55.2703C77.3308 56.8995 76.3974 57.9347 75.9562 58.3759L73.5633 60.7688L73.1051 61.227C72.9354 61.3967 72.8336 61.6003 72.7997 61.8379C72.7997 62.1095 72.63 62.4149 72.2905 62.7543C72.1548 62.8901 72.019 63.0259 71.8833 63.1616C71.7475 63.2974 71.5778 63.4332 71.3741 63.5689C71.1705 63.7726 70.9159 64.095 70.6105 64.5363C70.3389 64.9435 69.9656 65.3848 69.4904 65.86C68.7776 66.5727 67.6576 67.3873 66.1302 68.3037L63.7374 70.6966C63.1604 71.3415 62.7361 71.7997 62.4646 72.0712C62.2609 72.3427 62.1252 72.5124 62.0573 72.5803C61.9894 72.6482 61.9724 72.6991 62.0064 72.733C62.0743 72.733 62.1252 72.784 62.1591 72.8858C62.2949 72.8858 62.3797 72.8688 62.4137 72.8349C62.4816 72.767 62.5494 72.767 62.6173 72.8349L62.6682 72.8858C62.7361 72.8179 62.7701 72.75 62.7701 72.6821C62.8379 72.6142 62.9058 72.5464 62.9737 72.4785C63.0755 72.3767 63.2113 72.3427 63.381 72.3767C63.1774 72.784 62.8719 73.1912 62.4646 73.5985C62.3628 73.7004 62.1931 73.8361 61.9555 74.0058C61.7518 74.1416 61.6161 74.1755 61.5482 74.1077C61.4803 74.0398 61.4633 73.9889 61.4973 73.9549C61.5312 73.921 61.5142 73.8701 61.4464 73.8022L61.2936 73.8531C61.3276 73.887 61.3106 73.9379 61.2427 74.0058C61.1069 74.1416 60.9203 74.2264 60.6827 74.2604C60.513 74.2943 60.3942 74.3452 60.3263 74.4131L60.5299 74.5149C60.4281 74.7525 60.2414 74.9732 59.9699 75.1768C59.7663 75.3804 59.5796 75.6011 59.4099 75.8387C59.0705 76.1102 58.3747 76.5005 57.3225 77.0096L57.1189 77.2133C57.0849 77.1793 57.051 77.1793 57.017 77.2133C56.9492 77.2811 56.8813 77.4509 56.8134 77.7224C56.7455 77.9939 56.6607 78.3164 56.5588 78.6897C56.491 79.0291 56.3891 79.3685 56.2534 79.7079C56.1176 80.0474 55.9818 80.2849 55.8461 80.4207C55.5745 80.6922 55.3709 80.7601 55.2351 80.6244C55.2012 80.5904 55.1842 80.5395 55.1842 80.4716C55.1503 80.5734 55.0145 80.7431 54.7769 80.9807L54.3187 81.4389C53.572 82.0499 52.9271 82.5929 52.3841 83.0681C51.875 83.5093 51.4846 83.8657 51.2131 84.1373C51.3489 84.4767 51.5355 84.7652 51.7731 85.0028C52.0447 85.2743 52.3332 85.5288 52.6386 85.7664C52.978 85.9701 53.2835 86.2077 53.555 86.4792L56.5588 89.483C56.6267 89.5509 56.6946 89.6527 56.7625 89.7885C56.8304 89.9242 56.8982 90.026 56.9661 90.0939C57.0001 90.1279 57.9844 91.0782 59.919 92.945ZM106.933 116.132C105.236 117.83 102.843 120.222 99.7546 123.311C98.8721 124.329 98.1254 125.212 97.5145 125.958C96.9036 126.705 96.4114 127.333 96.0381 127.842C95.8684 127.944 95.6817 128.097 95.478 128.3C95.2744 128.504 95.0538 128.691 94.8162 128.86C94.6125 128.996 94.3749 129.098 94.1034 129.166C93.8998 129.234 93.6622 129.166 93.3907 128.962C93.0173 128.317 92.3894 127.554 91.5069 126.671C91.0996 126.264 90.6923 125.857 90.285 125.449C89.8438 125.076 89.4195 124.686 89.0123 124.278L88.3504 123.616C88.0449 123.311 87.8583 123.09 87.7904 122.955C87.5188 123.09 87.3491 123.124 87.2813 123.056C87.2134 122.989 87.1794 122.887 87.1794 122.751C87.1794 122.615 87.1455 122.513 87.0776 122.446C87.0097 122.378 86.9418 122.344 86.874 122.344C87.1794 121.699 87.5528 121.088 87.994 120.511C88.5031 119.934 89.0462 119.357 89.6232 118.78C89.8947 118.508 90.1323 118.271 90.336 118.067C90.6075 117.863 90.879 117.626 91.1505 117.354C91.456 117.049 91.7445 116.726 92.016 116.387C92.3215 116.082 92.61 115.759 92.8815 115.42C94.8162 113.281 96.7508 111.279 98.6855 109.412C100.62 107.545 102.436 105.526 104.133 103.354L103.98 103.201C103.335 103.031 102.572 103.15 101.689 103.557C100.841 103.999 99.9752 104.457 99.0928 104.932C98.2782 105.407 97.5145 105.797 96.8017 106.103C96.089 106.408 95.5629 106.391 95.2235 106.052C94.9519 105.78 94.8671 105.458 94.9689 105.085L95.1726 104.983C95.4441 104.711 95.5629 104.355 95.5289 103.914C95.5629 103.472 95.6477 103.184 95.7835 103.048C95.8514 102.98 95.9023 102.929 95.9362 102.895C96.0041 102.895 96.072 102.861 96.1399 102.794C96.3096 102.624 96.4284 102.403 96.4963 102.132C96.5981 101.894 96.6999 101.657 96.8017 101.419L96.9036 101.521C96.8696 101.894 96.8187 102.251 96.7508 102.59C96.7169 102.963 96.6829 103.337 96.649 103.71C96.9205 102.828 97.1412 101.962 97.3109 101.114C97.5484 100.265 97.6333 99.8068 97.5654 99.7389C97.5315 99.705 97.4806 99.7219 97.4127 99.7898C97.4127 99.7219 97.4975 99.5353 97.6672 99.2298C97.8709 98.8904 98.0576 98.534 98.2273 98.1606C98.4309 97.8212 98.6006 97.4818 98.7364 97.1424C98.94 96.803 99.0249 96.5824 98.9909 96.4806C98.6515 96.6842 98.1764 97.0576 97.5654 97.6006C97.0224 98.1437 96.3605 98.8055 95.5799 99.5862C94.6634 100.503 93.6792 101.487 92.627 102.539C91.6427 103.591 90.6075 104.728 89.5214 105.95C89.5214 105.95 89.3008 106.103 88.8595 106.408L88.9104 106.459C87.7564 107.613 86.5345 108.767 85.2448 109.921C83.989 111.041 82.7331 112.229 81.4773 113.485L80.6627 114.3C80.2554 114.707 80.0179 114.978 79.95 115.114L79.4409 115.012L79.2372 114.809C78.8978 114.401 78.5754 114.011 78.2699 113.638C77.9305 113.298 77.5741 112.942 77.2007 112.569C76.5898 111.958 75.9619 111.364 75.317 110.787C74.7061 110.244 74.0951 109.667 73.4842 109.056C73.1787 108.75 72.992 108.428 72.9242 108.088C72.8563 107.749 73.0769 107.325 73.586 106.816C73.7557 106.646 73.9254 106.476 74.0951 106.307C74.2988 106.171 74.4854 106.018 74.6552 105.848C74.8588 105.645 74.9946 105.475 75.0624 105.339L74.9606 105.237C75.2322 104.966 75.5037 104.762 75.7752 104.626C76.0807 104.525 76.471 104.236 76.9462 103.761C79.8991 100.604 82.224 98.1437 83.9211 96.3787C85.6521 94.5799 86.9418 93.2222 87.7904 92.3058C88.6389 91.3894 89.165 90.8294 89.3686 90.6257C89.6062 90.3881 89.708 90.2524 89.6741 90.2184C89.6402 90.1845 89.6062 90.1845 89.5723 90.2184C89.5723 90.2184 89.5553 90.2014 89.5214 90.1675L89.3177 90.3712C91.5578 88.131 93.764 86.0267 95.9362 84.0581C98.1085 82.0895 100.315 79.9852 102.555 77.7451C103.234 77.0662 103.878 76.3874 104.489 75.7086C105.168 75.0298 105.83 74.334 106.475 73.6212L106.882 73.4176C107.357 73.0781 107.663 72.8745 107.799 72.8066C107.934 72.7387 108.07 72.7727 108.206 72.9084C108.342 73.0442 108.444 73.18 108.511 73.3157C108.647 73.4515 108.8 73.6042 108.97 73.7739L114.875 79.6797L114.417 82.5817L114.163 82.6326C114.095 83.3114 113.857 84.0242 113.45 84.7709C113.11 85.5176 112.754 86.2134 112.381 86.8582C112.041 87.5371 111.753 88.131 111.515 88.6402C111.312 89.1832 111.312 89.5566 111.515 89.7602C111.753 89.9978 112.279 89.9808 113.093 89.7093C113.942 89.4038 114.875 89.0135 115.894 88.5383C116.912 88.0632 117.947 87.571 118.999 87.0619C120.085 86.5867 120.968 86.2812 121.647 86.1455C122.19 86.6885 122.733 87.2655 123.276 87.8765C123.819 88.4874 124.413 89.1153 125.058 89.7602C126.212 90.9142 127.264 91.7288 128.214 92.204L129.538 93.7313C129.47 93.7992 129.385 93.8162 129.283 93.7822C129.182 93.7483 129.097 93.7653 129.029 93.8331C128.995 93.8671 128.978 93.918 128.978 93.9859L128.978 94.1895C128.605 94.495 128.248 94.7835 127.909 95.055C127.603 95.3605 127.281 95.6829 126.941 96.0224L125.007 97.957C123.276 99.688 121.63 101.402 120.068 103.099C118.507 104.796 116.861 106.51 115.13 108.241C114.315 109.056 113.484 109.853 112.635 110.634C111.787 111.415 110.921 112.178 110.039 112.925C109.699 113.332 108.664 114.401 106.933 116.132ZM97.4636 124.787L98.94 123.311L109.988 111.55L113.501 109.158C113.806 108.852 114.027 108.496 114.163 108.088L115.079 107.477C115.622 106.799 115.995 106.323 116.199 106.052C116.437 105.746 116.589 105.56 116.657 105.492C116.759 105.39 116.827 105.322 116.861 105.288C116.929 105.288 117.065 105.186 117.268 104.983C117.574 104.677 117.879 104.372 118.185 104.066C118.524 103.795 118.931 103.523 119.407 103.252C119.61 102.98 119.814 102.709 120.017 102.437C120.255 102.2 120.51 101.945 120.781 101.674C121.256 101.198 121.698 100.757 122.105 100.35C122.58 99.9426 123.072 99.4843 123.581 98.9752C123.751 98.8055 123.904 98.6188 124.039 98.4152C124.209 98.2455 124.413 97.974 124.65 97.6006C124.956 97.2273 125.312 96.7351 125.72 96.1242C126.161 95.5472 126.738 94.7326 127.451 93.6804C127.518 93.6125 127.485 93.2052 127.349 92.4585C127.213 92.3906 126.975 92.187 126.636 91.8476L124.345 89.5566C123.462 88.6741 122.478 88.131 121.392 87.9274C120.34 87.7577 119.288 87.7916 118.236 88.0292C117.217 88.3007 116.233 88.708 115.283 89.2511C114.332 89.7942 113.535 90.3542 112.89 90.9312C112.483 91.0669 112.075 91.2027 111.668 91.3385C111.295 91.4403 110.904 91.627 110.497 91.8985L110.446 91.7458C110.378 91.6779 110.293 91.627 110.192 91.593C110.09 91.5591 110.005 91.5082 109.937 91.4403C109.733 91.2367 109.733 90.7615 109.937 90.0148C110.208 89.2681 110.514 88.4874 110.853 87.6728C111.261 86.8582 111.634 86.1115 111.973 85.4327C112.381 84.7539 112.618 84.3466 112.686 84.2108C112.958 83.4641 113.195 82.7514 113.399 82.0725C113.67 81.3937 113.891 80.8337 114.061 80.3925C113.721 80.1888 112.856 79.3912 111.464 77.9996C110.819 77.3547 110.276 76.8117 109.835 76.3704C109.428 75.8953 109.088 75.5219 108.817 75.2504L108.511 74.9449L107.85 74.2831C106.865 74.9279 105.864 75.6577 104.846 76.4723C103.828 77.2868 102.894 78.1184 102.046 78.9669L101.435 79.5779C101.231 79.7815 100.892 80.087 100.416 80.4943C100.009 80.9016 99.6867 81.224 99.4491 81.4616C99.1097 81.801 98.7703 82.1744 98.4309 82.5817C98.1594 82.989 97.8369 83.4472 97.4636 83.9563C96.7508 84.4654 96.055 85.0254 95.3762 85.6364C94.7313 86.2134 94.0865 86.8243 93.4416 87.4692C92.3555 88.5553 91.2863 89.6584 90.2341 90.7784C89.2159 91.9324 88.1977 93.0186 87.1794 94.0368L85.8557 95.3605C85.2108 96.1411 84.549 96.9048 83.8702 97.6515C83.1913 98.3982 82.4956 99.128 81.7828 99.8407C80.9003 100.723 80.0179 101.572 79.1354 102.386C78.2869 103.235 77.3704 104.151 76.3862 105.136C75.6055 105.916 75.0285 106.561 74.6552 107.07C74.3497 107.579 74.1969 108.038 74.1969 108.445C74.2648 108.852 74.4685 109.259 74.8079 109.667C75.1812 110.108 75.6904 110.651 76.3352 111.296C76.7425 111.703 77.1668 112.093 77.608 112.467C78.0832 112.874 78.6093 113.264 79.1863 113.638C79.356 113.604 80.1197 113.044 81.4773 111.958C82.8689 110.906 84.8205 109.395 87.3322 107.427C87.9092 106.85 88.554 106.171 89.2668 105.39C90.0135 104.576 90.7772 103.778 91.5578 102.997L97.6163 96.8369C97.7521 96.7012 97.8539 96.5654 97.9218 96.4296C98.0576 96.2939 98.1764 96.1751 98.2782 96.0733C98.9909 95.3605 99.4322 95.089 99.6019 95.2587C99.6698 95.3266 99.6358 95.5981 99.5001 96.0733C99.3643 96.5484 99.1946 97.0915 98.9909 97.7024C98.8212 98.2794 98.6346 98.8395 98.4309 99.3825C98.2612 99.8916 98.1424 100.214 98.0745 100.35C97.7691 101.266 97.4636 102.183 97.1581 103.099C96.8527 104.015 96.5811 104.762 96.3435 105.339H96.7508L96.6999 105.39C96.8017 105.492 97.1072 105.424 97.6163 105.186C98.1594 104.915 98.7873 104.592 99.5001 104.219C100.213 103.846 100.96 103.472 101.74 103.099C102.555 102.692 103.284 102.369 103.929 102.132L106.679 101.114L107.137 101.572C106.899 101.741 106.662 101.911 106.424 102.081C106.254 102.251 106.068 102.437 105.864 102.641C105.253 103.252 104.659 103.914 104.082 104.626C103.505 105.339 102.894 106.018 102.249 106.663L101.435 107.477C100.96 107.953 100.315 108.631 99.5001 109.514C98.6855 110.396 97.786 111.398 96.8017 112.518C95.8514 113.604 94.8671 114.69 93.8489 115.776C92.8646 116.896 91.9482 117.948 91.0996 118.933C90.285 119.883 89.6062 120.664 89.0632 121.275C88.5201 121.885 88.2146 122.225 88.1468 122.293C88.5201 122.938 89.1989 123.752 90.1832 124.737C90.7263 125.28 91.2693 125.789 91.8124 126.264C92.3894 126.773 92.9834 127.265 93.5943 127.74C94.0695 127.672 95.3592 126.688 97.4636 124.787ZM96.5472 112.365C96.6829 112.297 96.7508 112.195 96.7508 112.06C96.7169 112.161 96.632 112.246 96.4963 112.314C96.4284 112.382 96.3944 112.484 96.3944 112.62C96.4284 112.518 96.4793 112.433 96.5472 112.365ZM97.4636 111.449L97.3109 111.5L96.8527 111.958L97.4636 111.449Z" fill="white"/>
</g>
<defs>
<filter id="filter0_g_195_4" x="0" y="-1" width="136" height="136" filterUnits="userSpaceOnUse" color-interpolation-filters="sRGB">
<feFlood flood-opacity="0" result="BackgroundImageFix"/>
<feBlend mode="normal" in="SourceGraphic" in2="BackgroundImageFix" result="shape"/>
<feTurbulence type="fractalNoise" baseFrequency="0.17543859779834747 0.17543859779834747" numOctaves="3" seed="9698" />
<feDisplacementMap in="shape" scale="8" xChannelSelector="R" yChannelSelector="G" result="displacedImage" width="100%" height="100%" />
<feMerge result="effect1_texture_195_4">
<feMergeNode in="displacedImage"/>
</feMerge>
</filter>
<clipPath id="clip0_195_4">
<rect width="128" height="128" fill="white" transform="translate(4 3)"/>
</clipPath>
</defs>
</svg>
